<?xml version="1.0" encoding="UTF-8"?>
<svg id="Layer_1" data-name="Layer 1" xmlns="http://www.w3.org/2000/svg" xmlns:xlink="http://www.w3.org/1999/xlink" viewBox="0 0 51.94 51.94">
  <defs>
    <style>
      .cls-1 {
        fill: url(#linear-gradient-2);
      }

      .cls-2 {
        fill: url(#linear-gradient-5);
      }

      .cls-3 {
        fill: url(#linear-gradient-3);
      }

      .cls-4 {
        fill: url(#linear-gradient);
      }

      .cls-5 {
        fill: url(#linear-gradient-4);
      }
    </style>
    <linearGradient id="linear-gradient" x1="24.76" y1="41.72" x2="34.63" y2="41.72" gradientUnits="userSpaceOnUse">
      <stop offset="0" stop-color="#4d4d4d"/>
      <stop offset=".33" stop-color="gray"/>
      <stop offset=".39" stop-color="#898989"/>
      <stop offset=".57" stop-color="#a7a7a7"/>
      <stop offset=".67" stop-color="#b3b3b3"/>
      <stop offset=".73" stop-color="#bcbcbc"/>
      <stop offset=".9" stop-color="#dadada"/>
      <stop offset="1" stop-color="#e6e6e6"/>
    </linearGradient>
    <linearGradient id="linear-gradient-2" x1="18.22" y1="9.73" x2="29.02" y2="9.73" xlink:href="#linear-gradient"/>
    <linearGradient id="linear-gradient-3" x1="8.85" y1="25.93" x2="41.63" y2="25.93" gradientUnits="userSpaceOnUse">
      <stop offset="0" stop-color="#bee4ed"/>
      <stop offset=".32" stop-color="#66c9dc"/>
      <stop offset=".67" stop-color="#2a95d2"/>
      <stop offset="1" stop-color="#214391"/>
    </linearGradient>
    <linearGradient id="linear-gradient-4" x1="8.85" y1="25.48" x2="41.63" y2="25.48" xlink:href="#linear-gradient-3"/>
    <linearGradient id="linear-gradient-5" x1="823.05" y1="-226.07" x2="874.98" y2="-226.07" gradientTransform="translate(874.98 -200.1) rotate(-180)" xlink:href="#linear-gradient-3"/>
  </defs>
  <g>
    <polygon class="cls-4" points="25.57 45.13 32.38 38.32 25.57 38.32 25.57 45.13"/>
    <polygon class="cls-1" points="26.36 6.81 20.27 12.66 26.36 12.66 26.36 6.81"/>
    <polygon class="cls-3" points="38.26 32.95 45.13 26.36 37.97 18.91 23.79 32.66 38.26 32.95"/>
    <polygon class="cls-5" points="14.39 18.3 6.81 25.57 13.6 32.65 28.13 18.3 14.39 18.3"/>
  </g>
  <path class="cls-2" d="m25.43,51.94L0,25.43,26.5,0l25.43,26.5-26.5,25.43Zm25.26-25.46L26.48,1.24,1.24,25.46l24.21,25.23,25.23-24.21Z"/>
</svg>