<?xml version="1.0" encoding="UTF-8"?>
<svg id="Layer_1" data-name="Layer 1" xmlns="http://www.w3.org/2000/svg" xmlns:xlink="http://www.w3.org/1999/xlink" viewBox="0 0 2233 643.24">
  <defs>
    <style>
      .cls-1 {
        fill: url(#linear-gradient-2);
      }

      .cls-2 {
        letter-spacing: .44em;
      }

      .cls-3 {
        font-family: OpenSans, OpenSans;
        font-size: 123.06px;
      }

      .cls-3, .cls-4 {
        fill: #e0dede;
      }

      .cls-5 {
        letter-spacing: .36em;
      }

      .cls-4 {
        font-family: Montserrat-ExtraBold, Montserrat;
        font-size: 323.28px;
        font-weight: 700;
        letter-spacing: .1em;
      }

      .cls-6 {
        letter-spacing: .34em;
      }

      .cls-7 {
        letter-spacing: .4em;
      }

      .cls-8 {
        fill: url(#linear-gradient-5);
      }

      .cls-9 {
        letter-spacing: .4em;
      }

      .cls-10 {
        fill: url(#linear-gradient-3);
      }

      .cls-11 {
        fill: url(#linear-gradient);
      }

      .cls-12 {
        fill: url(#linear-gradient-4);
      }
    </style>
    <linearGradient id="linear-gradient" x1="306.69" y1="516.76" x2="428.88" y2="516.76" gradientUnits="userSpaceOnUse">
      <stop offset="0" stop-color="#4d4d4d"/>
      <stop offset=".33" stop-color="gray"/>
      <stop offset=".39" stop-color="#898989"/>
      <stop offset=".57" stop-color="#a7a7a7"/>
      <stop offset=".67" stop-color="#b3b3b3"/>
      <stop offset=".73" stop-color="#bcbcbc"/>
      <stop offset=".9" stop-color="#dadada"/>
      <stop offset="1" stop-color="#e6e6e6"/>
    </linearGradient>
    <linearGradient id="linear-gradient-2" x1="225.62" y1="120.53" x2="359.37" y2="120.53" xlink:href="#linear-gradient"/>
    <linearGradient id="linear-gradient-3" x1="109.58" y1="321.17" x2="515.65" y2="321.17" gradientUnits="userSpaceOnUse">
      <stop offset="0" stop-color="#bee4ed"/>
      <stop offset=".32" stop-color="#66c9dc"/>
      <stop offset=".67" stop-color="#2a95d2"/>
      <stop offset="1" stop-color="#214391"/>
    </linearGradient>
    <linearGradient id="linear-gradient-4" x1="109.59" y1="315.52" x2="515.65" y2="315.52" xlink:href="#linear-gradient-3"/>
    <linearGradient id="linear-gradient-5" x1="2376.85" y1="126.79" x2="3020.1" y2="126.79" gradientTransform="translate(3020.1 448.41) rotate(-180)" xlink:href="#linear-gradient-3"/>
  </defs>
  <g>
    <text class="cls-3" transform="translate(869.6 531.21) scale(.9 1)"><tspan class="cls-7" x="0" y="0">SOF</tspan><tspan class="cls-2" x="353.05" y="0">T</tspan><tspan class="cls-6" x="468.36" y="0">W</tspan><tspan class="cls-9" x="614.67" y="0">ARE L</tspan><tspan class="cls-5" x="1147.02" y="0">L</tspan><tspan class="cls-7" x="1249.52" y="0">C</tspan></text>
    <text class="cls-4" transform="translate(754.68 404.99) scale(.9 1)"><tspan x="0" y="0">ZENEON</tspan></text>
  </g>
  <g>
    <g>
      <polygon class="cls-11" points="316.74 558.92 401.06 474.6 316.74 474.6 316.74 558.92"/>
      <polygon class="cls-1" points="326.5 84.32 251.03 156.74 326.5 156.74 326.5 84.32"/>
      <polygon class="cls-10" points="473.85 408.14 558.92 326.52 470.32 234.19 294.59 404.44 473.85 408.14"/>
      <polygon class="cls-12" points="178.23 226.61 84.33 316.73 168.49 404.44 348.41 226.61 178.23 226.61"/>
    </g>
    <path class="cls-8" d="m315,643.24L0,314.99,328.25,0l315,328.25-328.25,315Zm312.82-315.3L327.92,15.41,15.42,315.33l299.9,312.52,312.51-299.9Z"/>
  </g>
</svg>