<?xml version="1.0" encoding="utf-8"?>
<!-- Generator: Adobe Illustrator 26.1.0, SVG Export Plug-In . SVG Version: 6.00 Build 0)  -->
<svg version="1.1" id="Layer_1" shape-rendering="crispEdges"
	 xmlns="http://www.w3.org/2000/svg" xmlns:xlink="http://www.w3.org/1999/xlink" x="0px" y="0px" viewBox="0 0 234.6 234.6"
	 style="enable-background:new 0 0 234.6 234.6;" xml:space="preserve">
<style type="text/css">
	.st0{fill:none;}
</style>
<path class="st0" d="M22.3,12.3h190c5.5,0,10,4.5,10,10v190c0,5.5-4.5,10-10,10h-190c-5.5,0-10-4.5-10-10v-190
	C12.3,16.8,16.8,12.3,22.3,12.3z"/>
<g id="clip-path-dot-color">
	<rect x="12.3" y="70" width="7.2" height="7.2"/>
	<rect x="12.3" y="106" width="7.2" height="7.2"/>
	<rect x="12.3" y="113.2" width="7.2" height="7.2"/>
	<rect x="12.3" y="120.4" width="7.2" height="7.2"/>
	<rect x="12.3" y="149.2" width="7.2" height="7.2"/>
	<rect x="19.5" y="77.2" width="7.2" height="7.2"/>
	<rect x="19.5" y="84.4" width="7.2" height="7.2"/>
	<rect x="19.5" y="113.2" width="7.2" height="7.2"/>
	<rect x="19.5" y="120.4" width="7.2" height="7.2"/>
	<rect x="19.5" y="142" width="7.2" height="7.2"/>
	<rect x="26.7" y="77.2" width="7.2" height="7.2"/>
	<rect x="26.7" y="84.4" width="7.2" height="7.2"/>
	<rect x="26.7" y="91.6" width="7.2" height="7.2"/>
	<rect x="26.7" y="113.2" width="7.2" height="7.2"/>
	<rect x="26.7" y="120.4" width="7.2" height="7.2"/>
	<rect x="26.7" y="149.2" width="7.2" height="7.2"/>
	<rect x="26.7" y="156.4" width="7.2" height="7.2"/>
	<rect x="33.9" y="77.2" width="7.2" height="7.2"/>
	<rect x="33.9" y="84.4" width="7.2" height="7.2"/>
	<rect x="33.9" y="91.6" width="7.2" height="7.2"/>
	<rect x="33.9" y="98.8" width="7.2" height="7.2"/>
	<rect x="33.9" y="120.4" width="7.2" height="7.2"/>
	<rect x="33.9" y="127.6" width="7.2" height="7.2"/>
	<rect x="33.9" y="134.8" width="7.2" height="7.2"/>
	<rect x="33.9" y="156.4" width="7.2" height="7.2"/>
	<rect x="41.1" y="70" width="7.2" height="7.2"/>
	<rect x="41.1" y="98.8" width="7.2" height="7.2"/>
	<rect x="41.1" y="127.6" width="7.2" height="7.2"/>
	<rect x="41.1" y="134.8" width="7.2" height="7.2"/>
	<rect x="41.1" y="149.2" width="7.2" height="7.2"/>
	<rect x="41.1" y="156.4" width="7.2" height="7.2"/>
	<rect x="48.3" y="70" width="7.2" height="7.2"/>
	<rect x="48.3" y="84.4" width="7.2" height="7.2"/>
	<rect x="48.3" y="91.6" width="7.2" height="7.2"/>
	<rect x="48.3" y="106" width="7.2" height="7.2"/>
	<rect x="48.3" y="142" width="7.2" height="7.2"/>
	<rect x="48.3" y="156.4" width="7.2" height="7.2"/>
	<rect x="55.5" y="70" width="7.2" height="7.2"/>
	<rect x="55.5" y="84.4" width="7.2" height="7.2"/>
	<rect x="55.5" y="98.8" width="7.2" height="7.2"/>
	<rect x="55.5" y="113.2" width="7.2" height="7.2"/>
	<rect x="55.5" y="127.6" width="7.2" height="7.2"/>
	<rect x="55.5" y="142" width="7.2" height="7.2"/>
	<rect x="55.5" y="156.4" width="7.2" height="7.2"/>
	<rect x="62.8" y="84.4" width="7.2" height="7.2"/>
	<rect x="62.8" y="113.2" width="7.2" height="7.2"/>
	<rect x="62.8" y="142" width="7.2" height="7.2"/>
	<rect x="70" y="19.5" width="7.2" height="7.2"/>
	<rect x="70" y="26.7" width="7.2" height="7.2"/>
	<rect x="70" y="33.9" width="7.2" height="7.2"/>
	<rect x="70" y="41.1" width="7.2" height="7.2"/>
	<rect x="70" y="48.3" width="7.2" height="7.2"/>
	<rect x="70" y="55.5" width="7.2" height="7.2"/>
	<rect x="70" y="62.8" width="7.2" height="7.2"/>
	<rect x="70" y="77.2" width="7.2" height="7.2"/>
	<rect x="70" y="84.4" width="7.2" height="7.2"/>
	<rect x="70" y="98.8" width="7.2" height="7.2"/>
	<rect x="70" y="106" width="7.2" height="7.2"/>
	<rect x="70" y="113.2" width="7.2" height="7.2"/>
	<rect x="70" y="120.4" width="7.2" height="7.2"/>
	<rect x="70" y="127.6" width="7.2" height="7.2"/>
	<rect x="70" y="134.8" width="7.2" height="7.2"/>
	<rect x="70" y="142" width="7.2" height="7.2"/>
	<rect x="70" y="149.2" width="7.2" height="7.2"/>
	<rect x="70" y="156.4" width="7.2" height="7.2"/>
	<rect x="70" y="178" width="7.2" height="7.2"/>
	<rect x="70" y="185.3" width="7.2" height="7.2"/>
	<rect x="70" y="214.1" width="7.2" height="7.2"/>
	<rect x="77.2" y="12.3" width="7.2" height="7.2"/>
	<rect x="77.2" y="26.7" width="7.2" height="7.2"/>
	<rect x="77.2" y="33.9" width="7.2" height="7.2"/>
	<rect x="77.2" y="41.1" width="7.2" height="7.2"/>
	<rect x="77.2" y="62.8" width="7.2" height="7.2"/>
	<rect x="77.2" y="70" width="7.2" height="7.2"/>
	<rect x="77.2" y="77.2" width="7.2" height="7.2"/>
	<rect x="77.2" y="84.4" width="7.2" height="7.2"/>
	<rect x="77.2" y="149.2" width="7.2" height="7.2"/>
	<rect x="77.2" y="163.6" width="7.2" height="7.2"/>
	<rect x="77.2" y="170.8" width="7.2" height="7.2"/>
	<rect x="77.2" y="178" width="7.2" height="7.2"/>
	<rect x="77.2" y="185.3" width="7.2" height="7.2"/>
	<rect x="77.2" y="192.5" width="7.2" height="7.2"/>
	<rect x="77.2" y="199.7" width="7.2" height="7.2"/>
	<rect x="77.2" y="214.1" width="7.2" height="7.2"/>
	<rect x="84.4" y="12.3" width="7.2" height="7.2"/>
	<rect x="84.4" y="33.9" width="7.2" height="7.2"/>
	<rect x="84.4" y="48.3" width="7.2" height="7.2"/>
	<rect x="84.4" y="55.5" width="7.2" height="7.2"/>
	<rect x="84.4" y="62.8" width="7.2" height="7.2"/>
	<rect x="84.4" y="70" width="7.2" height="7.2"/>
	<rect x="84.4" y="163.6" width="7.2" height="7.2"/>
	<rect x="84.4" y="170.8" width="7.2" height="7.2"/>
	<rect x="84.4" y="178" width="7.2" height="7.2"/>
	<rect x="84.4" y="192.5" width="7.2" height="7.2"/>
	<rect x="91.6" y="33.9" width="7.2" height="7.2"/>
	<rect x="91.6" y="77.2" width="7.2" height="7.2"/>
	<rect x="91.6" y="149.2" width="7.2" height="7.2"/>
	<rect x="91.6" y="163.6" width="7.2" height="7.2"/>
	<rect x="91.6" y="170.8" width="7.2" height="7.2"/>
	<rect x="91.6" y="178" width="7.2" height="7.2"/>
	<rect x="91.6" y="192.5" width="7.2" height="7.2"/>
	<rect x="91.6" y="206.9" width="7.2" height="7.2"/>
	<rect x="98.8" y="12.3" width="7.2" height="7.2"/>
	<rect x="98.8" y="55.5" width="7.2" height="7.2"/>
	<rect x="98.8" y="62.8" width="7.2" height="7.2"/>
	<rect x="98.8" y="70" width="7.2" height="7.2"/>
	<rect x="98.8" y="156.4" width="7.2" height="7.2"/>
	<rect x="98.8" y="163.6" width="7.2" height="7.2"/>
	<rect x="98.8" y="178" width="7.2" height="7.2"/>
	<rect x="98.8" y="199.7" width="7.2" height="7.2"/>
	<rect x="98.8" y="206.9" width="7.2" height="7.2"/>
	<rect x="98.8" y="214.1" width="7.2" height="7.2"/>
	<rect x="106" y="26.7" width="7.2" height="7.2"/>
	<rect x="106" y="41.1" width="7.2" height="7.2"/>
	<rect x="106" y="48.3" width="7.2" height="7.2"/>
	<rect x="106" y="62.8" width="7.2" height="7.2"/>
	<rect x="106" y="77.2" width="7.2" height="7.2"/>
	<rect x="106" y="149.2" width="7.2" height="7.2"/>
	<rect x="106" y="156.4" width="7.2" height="7.2"/>
	<rect x="106" y="163.6" width="7.2" height="7.2"/>
	<rect x="106" y="170.8" width="7.2" height="7.2"/>
	<rect x="106" y="185.3" width="7.2" height="7.2"/>
	<rect x="106" y="192.5" width="7.2" height="7.2"/>
	<rect x="106" y="206.9" width="7.2" height="7.2"/>
	<rect x="106" y="214.1" width="7.2" height="7.2"/>
	<rect x="113.2" y="12.3" width="7.2" height="7.2"/>
	<rect x="113.2" y="19.5" width="7.2" height="7.2"/>
	<rect x="113.2" y="33.9" width="7.2" height="7.2"/>
	<rect x="113.2" y="55.5" width="7.2" height="7.2"/>
	<rect x="113.2" y="70" width="7.2" height="7.2"/>
	<rect x="113.2" y="156.4" width="7.2" height="7.2"/>
	<rect x="113.2" y="178" width="7.2" height="7.2"/>
	<rect x="120.4" y="12.3" width="7.2" height="7.2"/>
	<rect x="120.4" y="19.5" width="7.2" height="7.2"/>
	<rect x="120.4" y="48.3" width="7.2" height="7.2"/>
	<rect x="120.4" y="156.4" width="7.2" height="7.2"/>
	<rect x="120.4" y="185.3" width="7.2" height="7.2"/>
	<rect x="120.4" y="192.5" width="7.2" height="7.2"/>
	<rect x="120.4" y="206.9" width="7.2" height="7.2"/>
	<rect x="120.4" y="214.1" width="7.2" height="7.2"/>
	<rect x="127.6" y="12.3" width="7.2" height="7.2"/>
	<rect x="127.6" y="19.5" width="7.2" height="7.2"/>
	<rect x="127.6" y="33.9" width="7.2" height="7.2"/>
	<rect x="127.6" y="55.5" width="7.2" height="7.2"/>
	<rect x="127.6" y="62.8" width="7.2" height="7.2"/>
	<rect x="127.6" y="77.2" width="7.2" height="7.2"/>
	<rect x="127.6" y="149.2" width="7.2" height="7.2"/>
	<rect x="127.6" y="163.6" width="7.2" height="7.2"/>
	<rect x="127.6" y="192.5" width="7.2" height="7.2"/>
	<rect x="127.6" y="199.7" width="7.2" height="7.2"/>
	<rect x="127.6" y="214.1" width="7.2" height="7.2"/>
	<rect x="134.8" y="12.3" width="7.2" height="7.2"/>
	<rect x="134.8" y="33.9" width="7.2" height="7.2"/>
	<rect x="134.8" y="70" width="7.2" height="7.2"/>
	<rect x="134.8" y="77.2" width="7.2" height="7.2"/>
	<rect x="134.8" y="149.2" width="7.2" height="7.2"/>
	<rect x="134.8" y="156.4" width="7.2" height="7.2"/>
	<rect x="134.8" y="170.8" width="7.2" height="7.2"/>
	<rect x="134.8" y="185.3" width="7.2" height="7.2"/>
	<rect x="134.8" y="192.5" width="7.2" height="7.2"/>
	<rect x="134.8" y="199.7" width="7.2" height="7.2"/>
	<rect x="134.8" y="206.9" width="7.2" height="7.2"/>
	<rect x="134.8" y="214.1" width="7.2" height="7.2"/>
	<rect x="142" y="12.3" width="7.2" height="7.2"/>
	<rect x="142" y="33.9" width="7.2" height="7.2"/>
	<rect x="142" y="41.1" width="7.2" height="7.2"/>
	<rect x="142" y="55.5" width="7.2" height="7.2"/>
	<rect x="142" y="156.4" width="7.2" height="7.2"/>
	<rect x="142" y="170.8" width="7.2" height="7.2"/>
	<rect x="142" y="178" width="7.2" height="7.2"/>
	<rect x="142" y="185.3" width="7.2" height="7.2"/>
	<rect x="142" y="192.5" width="7.2" height="7.2"/>
	<rect x="142" y="199.7" width="7.2" height="7.2"/>
	<rect x="149.2" y="12.3" width="7.2" height="7.2"/>
	<rect x="149.2" y="26.7" width="7.2" height="7.2"/>
	<rect x="149.2" y="33.9" width="7.2" height="7.2"/>
	<rect x="149.2" y="48.3" width="7.2" height="7.2"/>
	<rect x="149.2" y="62.8" width="7.2" height="7.2"/>
	<rect x="149.2" y="70" width="7.2" height="7.2"/>
	<rect x="149.2" y="84.4" width="7.2" height="7.2"/>
	<rect x="149.2" y="91.6" width="7.2" height="7.2"/>
	<rect x="149.2" y="120.4" width="7.2" height="7.2"/>
	<rect x="149.2" y="170.8" width="7.2" height="7.2"/>
	<rect x="149.2" y="192.5" width="7.2" height="7.2"/>
	<rect x="149.2" y="206.9" width="7.2" height="7.2"/>
	<rect x="149.2" y="214.1" width="7.2" height="7.2"/>
	<rect x="156.4" y="12.3" width="7.2" height="7.2"/>
	<rect x="156.4" y="26.7" width="7.2" height="7.2"/>
	<rect x="156.4" y="41.1" width="7.2" height="7.2"/>
	<rect x="156.4" y="48.3" width="7.2" height="7.2"/>
	<rect x="156.4" y="55.5" width="7.2" height="7.2"/>
	<rect x="156.4" y="98.8" width="7.2" height="7.2"/>
	<rect x="156.4" y="106" width="7.2" height="7.2"/>
	<rect x="156.4" y="113.2" width="7.2" height="7.2"/>
	<rect x="156.4" y="120.4" width="7.2" height="7.2"/>
	<rect x="156.4" y="134.8" width="7.2" height="7.2"/>
	<rect x="156.4" y="156.4" width="7.2" height="7.2"/>
	<rect x="156.4" y="163.6" width="7.2" height="7.2"/>
	<rect x="156.4" y="170.8" width="7.2" height="7.2"/>
	<rect x="156.4" y="178" width="7.2" height="7.2"/>
	<rect x="156.4" y="185.3" width="7.2" height="7.2"/>
	<rect x="156.4" y="199.7" width="7.2" height="7.2"/>
	<rect x="156.4" y="214.1" width="7.2" height="7.2"/>
	<rect x="163.6" y="70" width="7.2" height="7.2"/>
	<rect x="163.6" y="84.4" width="7.2" height="7.2"/>
	<rect x="163.6" y="91.6" width="7.2" height="7.2"/>
	<rect x="163.6" y="113.2" width="7.2" height="7.2"/>
	<rect x="163.6" y="127.6" width="7.2" height="7.2"/>
	<rect x="163.6" y="142" width="7.2" height="7.2"/>
	<rect x="163.6" y="156.4" width="7.2" height="7.2"/>
	<rect x="163.6" y="185.3" width="7.2" height="7.2"/>
	<rect x="163.6" y="192.5" width="7.2" height="7.2"/>
	<rect x="163.6" y="206.9" width="7.2" height="7.2"/>
	<rect x="163.6" y="214.1" width="7.2" height="7.2"/>
	<rect x="170.8" y="70" width="7.2" height="7.2"/>
	<rect x="170.8" y="84.4" width="7.2" height="7.2"/>
	<rect x="170.8" y="91.6" width="7.2" height="7.2"/>
	<rect x="170.8" y="98.8" width="7.2" height="7.2"/>
	<rect x="170.8" y="120.4" width="7.2" height="7.2"/>
	<rect x="170.8" y="142" width="7.2" height="7.2"/>
	<rect x="170.8" y="149.2" width="7.2" height="7.2"/>
	<rect x="170.8" y="156.4" width="7.2" height="7.2"/>
	<rect x="170.8" y="170.8" width="7.2" height="7.2"/>
	<rect x="170.8" y="185.3" width="7.2" height="7.2"/>
	<rect x="170.8" y="206.9" width="7.2" height="7.2"/>
	<rect x="178" y="70" width="7.2" height="7.2"/>
	<rect x="178" y="77.2" width="7.2" height="7.2"/>
	<rect x="178" y="106" width="7.2" height="7.2"/>
	<rect x="178" y="120.4" width="7.2" height="7.2"/>
	<rect x="178" y="127.6" width="7.2" height="7.2"/>
	<rect x="178" y="142" width="7.2" height="7.2"/>
	<rect x="178" y="149.2" width="7.2" height="7.2"/>
	<rect x="178" y="156.4" width="7.2" height="7.2"/>
	<rect x="178" y="185.3" width="7.2" height="7.2"/>
	<rect x="178" y="192.5" width="7.2" height="7.2"/>
	<rect x="185.3" y="70" width="7.2" height="7.2"/>
	<rect x="185.3" y="91.6" width="7.2" height="7.2"/>
	<rect x="185.3" y="113.2" width="7.2" height="7.2"/>
	<rect x="185.3" y="120.4" width="7.2" height="7.2"/>
	<rect x="185.3" y="142" width="7.2" height="7.2"/>
	<rect x="185.3" y="156.4" width="7.2" height="7.2"/>
	<rect x="185.3" y="163.6" width="7.2" height="7.2"/>
	<rect x="185.3" y="170.8" width="7.2" height="7.2"/>
	<rect x="185.3" y="178" width="7.2" height="7.2"/>
	<rect x="185.3" y="185.3" width="7.2" height="7.2"/>
	<rect x="185.3" y="192.5" width="7.2" height="7.2"/>
	<rect x="185.3" y="199.7" width="7.2" height="7.2"/>
	<rect x="192.5" y="70" width="7.2" height="7.2"/>
	<rect x="192.5" y="98.8" width="7.2" height="7.2"/>
	<rect x="192.5" y="113.2" width="7.2" height="7.2"/>
	<rect x="192.5" y="120.4" width="7.2" height="7.2"/>
	<rect x="192.5" y="127.6" width="7.2" height="7.2"/>
	<rect x="192.5" y="134.8" width="7.2" height="7.2"/>
	<rect x="192.5" y="142" width="7.2" height="7.2"/>
	<rect x="192.5" y="149.2" width="7.2" height="7.2"/>
	<rect x="192.5" y="156.4" width="7.2" height="7.2"/>
	<rect x="192.5" y="163.6" width="7.2" height="7.2"/>
	<rect x="192.5" y="178" width="7.2" height="7.2"/>
	<rect x="199.7" y="70" width="7.2" height="7.2"/>
	<rect x="199.7" y="84.4" width="7.2" height="7.2"/>
	<rect x="199.7" y="91.6" width="7.2" height="7.2"/>
	<rect x="199.7" y="98.8" width="7.2" height="7.2"/>
	<rect x="199.7" y="106" width="7.2" height="7.2"/>
	<rect x="199.7" y="134.8" width="7.2" height="7.2"/>
	<rect x="199.7" y="149.2" width="7.2" height="7.2"/>
	<rect x="199.7" y="156.4" width="7.2" height="7.2"/>
	<rect x="199.7" y="163.6" width="7.2" height="7.2"/>
	<rect x="199.7" y="170.8" width="7.2" height="7.2"/>
	<rect x="199.7" y="178" width="7.2" height="7.2"/>
	<rect x="199.7" y="185.3" width="7.2" height="7.2"/>
	<rect x="199.7" y="199.7" width="7.2" height="7.2"/>
	<rect x="199.7" y="206.9" width="7.2" height="7.2"/>
	<rect x="206.9" y="70" width="7.2" height="7.2"/>
	<rect x="206.9" y="77.2" width="7.2" height="7.2"/>
	<rect x="206.9" y="98.8" width="7.2" height="7.2"/>
	<rect x="206.9" y="113.2" width="7.2" height="7.2"/>
	<rect x="206.9" y="127.6" width="7.2" height="7.2"/>
	<rect x="206.9" y="156.4" width="7.2" height="7.2"/>
	<rect x="206.9" y="185.3" width="7.2" height="7.2"/>
	<rect x="206.9" y="192.5" width="7.2" height="7.2"/>
	<rect x="206.9" y="206.9" width="7.2" height="7.2"/>
	<rect x="214.1" y="77.2" width="7.2" height="7.2"/>
	<rect x="214.1" y="84.4" width="7.2" height="7.2"/>
	<rect x="214.1" y="91.6" width="7.2" height="7.2"/>
	<rect x="214.1" y="98.8" width="7.2" height="7.2"/>
	<rect x="214.1" y="134.8" width="7.2" height="7.2"/>
	<rect x="214.1" y="149.2" width="7.2" height="7.2"/>
	<rect x="214.1" y="170.8" width="7.2" height="7.2"/>
	<rect x="214.1" y="185.3" width="7.2" height="7.2"/>
	<rect x="214.1" y="199.7" width="7.2" height="7.2"/>
</g>
<g id="clip-path-corners-square-color-0-0">
	<rect x="12.3" y="12.3" width="7.2" height="7.2"/>
	<rect x="12.3" y="19.5" width="7.2" height="7.2"/>
	<rect x="12.3" y="26.7" width="7.2" height="7.2"/>
	<rect x="12.3" y="33.9" width="7.2" height="7.2"/>
	<rect x="12.3" y="41.1" width="7.2" height="7.2"/>
	<rect x="12.3" y="48.3" width="7.2" height="7.2"/>
	<rect x="12.3" y="55.5" width="7.2" height="7.2"/>
	<rect x="19.5" y="12.3" width="7.2" height="7.2"/>
	<rect x="19.5" y="55.5" width="7.2" height="7.2"/>
	<rect x="26.7" y="12.3" width="7.2" height="7.2"/>
	<rect x="26.7" y="55.5" width="7.2" height="7.2"/>
	<rect x="33.9" y="12.3" width="7.2" height="7.2"/>
	<rect x="33.9" y="55.5" width="7.2" height="7.2"/>
	<rect x="41.1" y="12.3" width="7.2" height="7.2"/>
	<rect x="41.1" y="55.5" width="7.2" height="7.2"/>
	<rect x="48.3" y="12.3" width="7.2" height="7.2"/>
	<rect x="48.3" y="55.5" width="7.2" height="7.2"/>
	<rect x="55.5" y="12.3" width="7.2" height="7.2"/>
	<rect x="55.5" y="19.5" width="7.2" height="7.2"/>
	<rect x="55.5" y="26.7" width="7.2" height="7.2"/>
	<rect x="55.5" y="33.9" width="7.2" height="7.2"/>
	<rect x="55.5" y="41.1" width="7.2" height="7.2"/>
	<rect x="55.5" y="48.3" width="7.2" height="7.2"/>
	<rect x="55.5" y="55.5" width="7.2" height="7.2"/>
</g>
<g id="clip-path-corners-dot-color-0-0">
	<rect x="26.7" y="26.7" width="7.2" height="7.2"/>
	<rect x="26.7" y="33.9" width="7.2" height="7.2"/>
	<rect x="26.7" y="41.1" width="7.2" height="7.2"/>
	<rect x="33.9" y="26.7" width="7.2" height="7.2"/>
	<rect x="33.9" y="33.9" width="7.2" height="7.2"/>
	<rect x="33.9" y="41.1" width="7.2" height="7.2"/>
	<rect x="41.1" y="26.7" width="7.2" height="7.2"/>
	<rect x="41.1" y="33.9" width="7.2" height="7.2"/>
	<rect x="41.1" y="41.1" width="7.2" height="7.2"/>
</g>
<g id="clip-path-corners-square-color-1-0">
	<rect x="170.8" y="12.3" width="7.2" height="7.2"/>
	<rect x="170.8" y="19.5" width="7.2" height="7.2"/>
	<rect x="170.8" y="26.7" width="7.2" height="7.2"/>
	<rect x="170.8" y="33.9" width="7.2" height="7.2"/>
	<rect x="170.8" y="41.1" width="7.2" height="7.2"/>
	<rect x="170.8" y="48.3" width="7.2" height="7.2"/>
	<rect x="170.8" y="55.5" width="7.2" height="7.2"/>
	<rect x="178" y="12.3" width="7.2" height="7.2"/>
	<rect x="178" y="55.5" width="7.2" height="7.2"/>
	<rect x="185.3" y="12.3" width="7.2" height="7.2"/>
	<rect x="185.3" y="55.5" width="7.2" height="7.2"/>
	<rect x="192.5" y="12.3" width="7.2" height="7.2"/>
	<rect x="192.5" y="55.5" width="7.2" height="7.2"/>
	<rect x="199.7" y="12.3" width="7.2" height="7.2"/>
	<rect x="199.7" y="55.5" width="7.2" height="7.2"/>
	<rect x="206.9" y="12.3" width="7.2" height="7.2"/>
	<rect x="206.9" y="55.5" width="7.2" height="7.2"/>
	<rect x="214.1" y="12.3" width="7.2" height="7.2"/>
	<rect x="214.1" y="19.5" width="7.2" height="7.2"/>
	<rect x="214.1" y="26.7" width="7.2" height="7.2"/>
	<rect x="214.1" y="33.9" width="7.2" height="7.2"/>
	<rect x="214.1" y="41.1" width="7.2" height="7.2"/>
	<rect x="214.1" y="48.3" width="7.2" height="7.2"/>
	<rect x="214.1" y="55.5" width="7.2" height="7.2"/>
</g>
<g id="clip-path-corners-dot-color-1-0">
	<rect x="185.3" y="26.7" width="7.2" height="7.2"/>
	<rect x="185.3" y="33.9" width="7.2" height="7.2"/>
	<rect x="185.3" y="41.1" width="7.2" height="7.2"/>
	<rect x="192.5" y="26.7" width="7.2" height="7.2"/>
	<rect x="192.5" y="33.9" width="7.2" height="7.2"/>
	<rect x="192.5" y="41.1" width="7.2" height="7.2"/>
	<rect x="199.7" y="26.7" width="7.2" height="7.2"/>
	<rect x="199.7" y="33.9" width="7.2" height="7.2"/>
	<rect x="199.7" y="41.1" width="7.2" height="7.2"/>
</g>
<g id="clip-path-corners-square-color-0-1">
	<rect x="12.3" y="170.8" width="7.2" height="7.2"/>
	<rect x="12.3" y="178" width="7.2" height="7.2"/>
	<rect x="12.3" y="185.3" width="7.2" height="7.2"/>
	<rect x="12.3" y="192.5" width="7.2" height="7.2"/>
	<rect x="12.3" y="199.7" width="7.2" height="7.2"/>
	<rect x="12.3" y="206.9" width="7.2" height="7.2"/>
	<rect x="12.3" y="214.1" width="7.2" height="7.2"/>
	<rect x="19.5" y="170.8" width="7.2" height="7.2"/>
	<rect x="19.5" y="214.1" width="7.2" height="7.2"/>
	<rect x="26.7" y="170.8" width="7.2" height="7.2"/>
	<rect x="26.7" y="214.1" width="7.2" height="7.2"/>
	<rect x="33.9" y="170.8" width="7.2" height="7.2"/>
	<rect x="33.9" y="214.1" width="7.2" height="7.2"/>
	<rect x="41.1" y="170.8" width="7.2" height="7.2"/>
	<rect x="41.1" y="214.1" width="7.2" height="7.2"/>
	<rect x="48.3" y="170.8" width="7.2" height="7.2"/>
	<rect x="48.3" y="214.1" width="7.2" height="7.2"/>
	<rect x="55.5" y="170.8" width="7.2" height="7.2"/>
	<rect x="55.5" y="178" width="7.2" height="7.2"/>
	<rect x="55.5" y="185.3" width="7.2" height="7.2"/>
	<rect x="55.5" y="192.5" width="7.2" height="7.2"/>
	<rect x="55.5" y="199.7" width="7.2" height="7.2"/>
	<rect x="55.5" y="206.9" width="7.2" height="7.2"/>
	<rect x="55.5" y="214.1" width="7.2" height="7.2"/>
</g>
<g id="clip-path-corners-dot-color-0-1">
	<rect x="26.7" y="185.3" width="7.2" height="7.2"/>
	<rect x="26.7" y="192.5" width="7.2" height="7.2"/>
	<rect x="26.7" y="199.7" width="7.2" height="7.2"/>
	<rect x="33.9" y="185.3" width="7.2" height="7.2"/>
	<rect x="33.9" y="192.5" width="7.2" height="7.2"/>
	<rect x="33.9" y="199.7" width="7.2" height="7.2"/>
	<rect x="41.1" y="185.3" width="7.2" height="7.2"/>
	<rect x="41.1" y="192.5" width="7.2" height="7.2"/>
	<rect x="41.1" y="199.7" width="7.2" height="7.2"/>
</g>
<image style="overflow:visible;enable-background:new    ;" width="2084" height="2084" xlink:href="G:\ARCHIVE\Darya-IK Files Backup\Desktop Items\LOX LOGO\Alpha\TIC Logo - icon-01.png"  transform="matrix(3.013154e-02 0 0 3.013154e-02 81.7949 85.9125)">
</image>
</svg>
